<svg width="1440" height="588" viewBox="0 0 1440 588" fill="none" xmlns="http://www.w3.org/2000/svg">
<rect width="1440" height="588" fill="#E5E5E5"/>
<g clip-path="url(#clip0)">
<rect width="1440" height="588" fill="white"/>
<rect width="1440" height="597" fill="white"/>
<path d="M524.325 241.857L501.7 229.758L521.501 182.6L560.484 206.664L524.325 241.857Z" stroke="#2B2D42" stroke-width="3" stroke-linejoin="round"/>
<path d="M352.477 391.676L360.724 397.213L357.499 411.025L343.315 400.594L352.477 391.676Z" stroke="#2B2D42" stroke-width="3" stroke-linejoin="round"/>
<path d="M289.029 376.53L277.238 370.225L287.86 344.929L308.443 357.634L289.029 376.53Z" stroke="#2B2D42" stroke-width="3" stroke-linejoin="round"/>
<path d="M209.225 543.837L171.955 580.111L153.726 572.483L177.75 527.663L209.225 543.837Z" stroke="#2B2D42" stroke-width="3" stroke-linejoin="round"/>
<path d="M1350.97 238.993L1336.64 260.269L1291.74 235.77L1319.64 199.439L1350.97 238.993Z" stroke="#2B2D42" stroke-width="3" stroke-linejoin="round"/>
<path d="M372.434 339.498L397.019 265.687L544.882 300.02L493.405 427.601L372.434 339.498Z" stroke="#2B2D42" stroke-width="3" stroke-linejoin="round"/>
<path d="M1184.28 180.534L1100.33 71.8937L1295.19 -110.111L1431.18 90.4163L1184.28 180.534Z" stroke="#2B2D42" stroke-width="3" stroke-linejoin="round"/>
<path d="M1095.34 146.78L1035.16 184.203L1002.18 161.06L1044.63 109.059L1095.34 146.78Z" stroke="#2B2D42" stroke-width="3" stroke-linejoin="round"/>
<path d="M399.34 227.117L365.471 248.202L347.181 235.352L371.063 206.06L399.34 227.117Z" stroke="#2B2D42" stroke-width="3" stroke-linejoin="round"/>
<path d="M331.715 441.473L333.443 463.098L322.975 468.565L314.792 449.724L331.715 441.473Z" stroke="#2B2D42" stroke-width="3" stroke-linejoin="round"/>
<path d="M884.837 298.173L1020.57 375.248L1095.71 327.098L999.961 219.979L884.837 298.173Z" stroke="#2B2D42" stroke-width="3" stroke-linejoin="round"/>
<path d="M584.289 440.847L606.184 416.878L577.813 362.652L544.059 401.819L584.289 440.847Z" stroke="#2B2D42" stroke-width="3" stroke-linejoin="round"/>
<path d="M409.8 175.812L364.289 116.971L419.966 88.2547L485.258 148.743L409.8 175.812Z" stroke="#2B2D42" stroke-width="3" stroke-linejoin="round"/>
<path d="M1342.45 556.711L1271.15 535.5L1299.6 479.684L1387.92 490.687L1342.45 556.711Z" stroke="#2B2D42" stroke-width="3" stroke-linejoin="round"/>
<path d="M984.453 43.7107L913.154 22.5L941.6 -33.3159L1029.92 -22.3133L984.453 43.7107Z" stroke="#2B2D42" stroke-width="3" stroke-linejoin="round"/>
<path d="M886.645 554.423L730.5 583.198V448.975L909.189 384.251L886.645 554.423Z" stroke="#2B2D42" stroke-width="3" stroke-linejoin="round"/>
<path d="M1123.57 221.851L1218.9 228.545L1241.52 329.718L1212.2 391.67L1123.57 221.851Z" stroke="#2B2D42" stroke-width="3" stroke-linejoin="round"/>
<path d="M577.985 93.596L635.989 77.5869L671.099 133.667L666.71 176.311L577.985 93.596Z" stroke="#2B2D42" stroke-width="3" stroke-linejoin="round"/>
<path d="M1121.11 423.556L1002.65 472.218L1160.58 630.596L1242.47 465.721L1121.11 423.556Z" stroke="#2B2D42" stroke-width="3" stroke-linejoin="round"/>
<path d="M527.5 112.29L506.73 99.2786L514.028 71.4422L527.5 61.0512V112.29Z" stroke="#2B2D42" stroke-width="3" stroke-linejoin="round"/>
<path d="M340.337 312.555L329.843 311.724L326.147 297.825L328.716 291.483L340.337 312.555Z" stroke="#2B2D42" stroke-width="3" stroke-linejoin="round"/>
<path d="M215.5 456.563L235.175 446.634L228.358 425.686L215.5 417.698V456.563Z" stroke="#2B2D42" stroke-width="3" stroke-linejoin="round"/>
<path d="M1376.78 377.113L1323.63 392.107L1289.76 340.38L1292.8 301.162L1376.78 377.113Z" stroke="#2B2D42" stroke-width="3" stroke-linejoin="round"/>
<path d="M963.21 104.31L866.895 194.59L740.984 123.793L703.766 36.2269L963.21 104.31Z" stroke="#2B2D42" stroke-width="3" stroke-linejoin="round"/>
<path d="M793.502 -12.9062L835.417 -50.6212L862.812 -0.946152L785.498 24.4267L793.502 -12.9062Z" stroke="#2B2D42" stroke-width="3" stroke-linejoin="round"/>
<rect x="653" y="502" width="258" height="83" fill="white"/>
<rect x="852" y="459" width="59" height="63" fill="white"/>
<rect x="550.144" y="513.077" width="159.887" height="90.4073" transform="rotate(-15.9578 550.144 513.077)" fill="white"/>
<rect x="684.769" y="538" width="94.0119" height="49.3055" transform="rotate(7.89094 684.769 538)" fill="white"/>
<rect x="720.45" y="430" width="94.0119" height="76.1187" transform="rotate(7.89094 720.45 430)" fill="white"/>
<rect x="412.521" y="488" width="129.319" height="59.5453" transform="rotate(18.1223 412.521 488)" fill="white"/>
<rect x="899.035" y="503.362" width="186.863" height="199.107" transform="rotate(-20.598 899.035 503.362)" fill="white"/>
<rect x="1251.9" y="530.74" width="112.516" height="67.9666" transform="rotate(6.49635 1251.9 530.74)" fill="white"/>
<rect x="1395.18" y="554.714" width="50.4998" height="69.1576" transform="rotate(-173.504 1395.18 554.714)" fill="white"/>
<rect x="173.963" y="546.224" width="41.0741" height="51.3217" transform="rotate(18.1223 173.963 546.224)" fill="white"/>
<rect x="141.963" y="564" width="34.0592" height="23.5755" transform="rotate(18.1223 141.963 564)" fill="white"/>
<rect x="1111" y="573.997" width="71.0541" height="75.2918" transform="rotate(-20.598 1111 573.997)" fill="white"/>
</g>
<defs>
<clipPath id="clip0">
<rect width="1440" height="588" fill="white"/>
</clipPath>
</defs>
</svg>
